[Header]
FileType HTR
DataType HTRS
FileVersion 1
NumSegments 28
NumFrames 5
DataFrameRate 24
EulerRotationOrder ZYX
CalibrationUnits mm
RotationUnits Degrees
GlobalAxisofGravity Y
BoneLengthAxis Y
ScaleFactor 1.0
[SegmentNames&Hierarchy]
waist	GLOBAL
chest	waist
head	chest
joint2	chest
right_shoulder1	joint2
right_elbow1	right_shoulder1
right_wrist1	right_elbow1
right_hand1	right_wrist1
right_finger3	right_hand1
right_finger4	right_hand1
right_finger5	right_hand1
joint3	chest
right_shoulder2	joint3
right_elbow2	right_shoulder2
right_wrist2	right_elbow2
right_hand2	right_wrist2
right_finger6	right_hand2
right_finger7	right_hand2
right_finger8	right_hand2
Center_pelvis	waist
left_pelvs	Center_pelvis
left_leg	left_pelvs
left_knee	left_leg
left_foot	left_knee
right_pelvis	Center_pelvis
right_leg	right_pelvis
right_knee	right_leg
right_foot	right_knee
[BasePosition]
waist	0	0	0	179.9999991	0	91.33221985	1
chest	0	0	0	-2.307808268e-010	-1.984983424e-008	1.332219854	1
head	0	0	0	180	-1.481061187e-024	90	1
joint2	0	0	0	4.615476202e-010	-1.707085745e-006	90	1
right_shoulder1	0	0	0	1.916575325e-008	-1.983803253e-008	-88.02506599	1
right_elbow1	0	0	0	-180	-1.948815659e-008	-12.92899665	1
right_wrist1	0	0	0	3.256551172e-010	1.942478841e-008	1.920938916	1
right_hand1	0	0	0	136.2194085	85.17676588	-133.4832578	1
right_finger3	0	0	0	154.4596717	79.84057755	147.6247455	1
right_finger4	0	0	0	154.4596717	79.84057755	147.6247455	1
right_finger5	0	0	0	154.4596717	79.84057755	147.6247455	1
joint3	0	0	0	-180	-1.89575832e-022	90	1
right_shoulder2	0	0	0	6.774897105e-015	-7.012540931e-015	-88.02506599	1
right_elbow2	0	0	0	-180	-6.888863384e-015	-12.92899665	1
right_wrist2	0	0	0	-1.240805042e-012	-7.401196581e-011	1.920938916	1
right_hand2	0	0	0	136.2194085	85.17676588	-133.4832578	1
right_finger6	0	0	0	154.4596717	79.84057755	147.6247455	1
right_finger7	0	0	0	154.4596717	79.84057755	147.6247455	1
right_finger8	0	0	0	154.4596717	79.84057755	147.6247455	1
Center_pelvis	0	0	0	-180	-8.537716493e-007	89.87586122	1
left_pelvs	0	0	0	0	0	-1.456358634	1
left_leg	0	0	0	179.9999991	0	88.69804733	1
left_knee	0	0	0	-180	-7.863991589e-009	-2.076172838	1
left_foot	0	0	0	179.9999985	-3.055580289e-010	-90.77422016	1
right_pelvis	0	0	0	0	0	-2.39554958	1
right_leg	0	0	0	0	0	-87.75885638	1
right_knee	0	0	0	179.9999991	3.702652968e-022	-2.076172838	1
right_foot	0	0	0	180	-7.405305937e-025	-90.77422016	1
[waist]
11	0.2494212389	-3.152148962	0	-1.159102757e-018	3.467050791	-1.310067875e-016	1.0
12	0.2494212389	-3.152148962	0	1.274670978e-019	4.822720528	-2.573002602e-016	1.0
13	0.2494212389	-3.152148962	0	1.08844991e-017	5.859832764	-2.370610697e-016	1.0
14	0.2494212389	-3.152148962	0	1.770476869e-017	8.695587158	-1.559124679e-016	1.0
15	0.2494212389	-3.152148962	0	2.379556093e-017	11.95402718	1.044073854e-016	1.0
[chest]
11	26.90063095	-5.105234635e-008	3.426064014	17.10495567	9.15854454	-0.1370771676	1.0
12	26.90063095	-5.105234635e-008	3.426064014	10.33773804	9.20181942	-0.1561910063	1.0
13	26.90063095	-5.105234635e-008	3.426064014	3.331956387	9.246824265	-0.1760684997	1.0
14	26.90063095	-5.105234635e-008	3.426064014	-4.528118134	9.293503761	-0.1966864467	1.0
15	26.90063095	-5.105234635e-008	3.426064014	-12.12855625	9.340724945	-0.2175427228	1.0
[head]
11	20.16237068	-0.3196794093	-1.55447948	18.02056694	-13.94889164	-2.162486076	1.0
12	20.1444664	-0.337207973	-1.468647718	16.9769249	-13.26837444	-2.081669331	1.0
13	20.12482452	-0.3564387262	-1.374481201	15.83193779	-12.52177525	-1.99300456	1.0
14	20.10360336	-0.3772158027	-1.272742271	14.59488201	-11.71513939	-1.89721024	1.0
15	20.08183479	-0.3985261917	-1.168392301	13.3260746	-10.88780022	-1.798957109	1.0
[joint2]
11	-1.657010078	17.01290512	0.01287616603	-9.966691017	-40.12870789	-24.36416054	1.0
12	-1.657010078	17.01290512	0.01287616603	-6.959450722	-43.9533844	-34.582901	1.0
13	-1.657010078	17.01290512	0.01287616603	-5.425329685	-41.56181335	-37.25006866	1.0
14	-1.657010078	17.01290512	0.01287616603	-4.536002159	-35.63025665	-38.61969757	1.0
15	-1.657010078	17.01290512	0.01287616603	-4.124701023	-28.02342987	-39.1242981	1.0
[right_shoulder1]
11	14.91590023	0.6211000085	0.9477797747	3.600275755	3.996100426	-23.62874222	1.0
12	14.91590023	0.6211000085	0.9477797747	4.008368969	5.040910721	-28.17706108	1.0
13	14.91590023	0.6211000085	0.9477797747	4.320942402	4.570579529	-30.72331619	1.0
14	14.91590023	0.6211000085	0.9477797747	4.569941521	3.535851479	-32.11817932	1.0
15	14.91590023	0.6211000085	0.9477797747	4.80470562	2.501123428	-32.70402527	1.0
[right_elbow1]
11	-13.64346027	1.083028078	-0.5017899871	-16.99137115	17.2299614	-30.00201225	1.0
12	-13.64346027	1.083028078	-0.5017899871	-17.25771332	12.83351994	-30.35612297	1.0
13	-13.64346027	1.083028078	-0.5017899871	-15.19049931	10.37262249	-26.62065125	1.0
14	-13.64346027	1.083028078	-0.5017899871	-10.64262772	8.842520714	-18.40261841	1.0
15	-13.64346027	1.083028078	-0.5017899871	-6.094757557	8.059317589	-10.18458271	1.0
[right_wrist1]
11	-11.07325459	0.004849368241	0.6145500541	-1.312427998	16.02299118	-5.904896259	1.0
12	-11.07325459	0.004849368241	0.6145500541	-0.5522966981	13.47789478	-2.368381739	1.0
13	-11.07325459	0.004849368241	0.6145500541	-0.2330001742	14.39798927	-0.9991610646	1.0
14	-11.07325459	0.004849368241	0.6145500541	-0.06903706491	16.43120384	-0.2960476279	1.0
15	-11.07325459	0.004849368241	0.6145500541	-0.008629627526	18.48693466	-0.03700593114	1.0
[right_hand1]
11	-8.785093307	0.04701882228	0.1882400364	21.80536079	22.9393158	34.44101715	1.0
12	-8.785093307	0.04701882228	0.1882400364	22.60881424	23.25669861	32.99170685	1.0
13	-8.785093307	0.04701882228	0.1882400364	19.80478477	22.5919857	31.51955414	1.0
14	-8.785093307	0.04701882228	0.1882400364	13.63592052	21.12961578	29.87995911	1.0
15	-8.785093307	0.04701882228	0.1882400364	7.467055321	19.66724586	28.54788589	1.0
[right_finger3]
11	10.07661057	3.347557783	-1.489186764	-84.15776062	3.726063967	86.90209961	1.0
12	10.07661057	3.347557783	-1.489186764	-84.12572479	5.344958782	87.07133484	1.0
13	10.07661057	3.347557783	-1.489186764	-84.09141541	7.078663826	87.25257874	1.0
14	10.07661057	3.347557783	-1.489186764	-84.0552063	8.908502579	87.44387817	1.0
15	10.07661057	3.347557783	-1.489186764	-84.01992798	10.69168758	87.63028717	1.0
[right_finger4]
11	-1.201135993	3.376283169	11.27149582	-192.950058	12.95756149	111.4500427	1.0
12	-1.201135993	3.376283169	11.27149582	-193.2867279	12.52280521	109.7798691	1.0
13	-1.201135993	3.376283169	11.27149582	-193.6472626	12.0572176	107.9912415	1.0
14	-1.201135993	3.376283169	11.27149582	-194.027832	11.56581116	106.1034393	1.0
15	-1.201135993	3.376283169	11.27149582	-194.3986664	11.086936	104.2637787	1.0
[right_finger5]
11	-6.853637218	4.493112087	-5.936321735	32.92904282	5.541316032	76.9824295	1.0
12	-6.853637218	4.493112087	-5.936321735	32.97238159	4.605279922	78.37465668	1.0
13	-6.853637218	4.493112087	-5.936321735	33.0187912	3.602861166	79.86561584	1.0
14	-6.853637218	4.493112087	-5.936321735	33.06777954	2.544858456	81.43924713	1.0
15	-6.853637218	4.493112087	-5.936321735	33.11551666	1.513830662	82.97276306	1.0
[joint3]
11	-1.657010078	-17.01289368	0.01287565939	-51.0803833	-7.487064838	32.61349487	1.0
12	-1.657010078	-17.01289368	0.01287565939	-49.35396194	-12.42749786	38.46273041	1.0
13	-1.657010078	-17.01289368	0.01287565939	-47.76409912	-14.7050705	35.15147781	1.0
14	-1.657010078	-17.01289368	0.01287565939	-46.22615814	-15.87463474	27.03675461	1.0
15	-1.657010078	-17.01289368	0.01287565939	-44.17644501	-16.30552673	16.84710884	1.0
[right_shoulder2]
11	-14.91590023	-0.6211000085	-0.9477797747	18.13072205	-11.73946762	-58.0525856	1.0
12	-14.91590023	-0.6211000085	-0.9477797747	21.0977459	-9.632843971	-67.63326263	1.0
13	-14.91590023	-0.6211000085	-0.9477797747	21.03198051	-10.51289463	-67.63056183	1.0
14	-14.91590023	-0.6211000085	-0.9477797747	20.83789444	-12.83247375	-67.61174774	1.0
15	-14.91590023	-0.6211000085	-0.9477797747	20.52028275	-16.11128807	-67.56074524	1.0
[right_elbow2]
11	13.64346027	-1.083028078	0.5017899871	-0.7530020475	3.721910238	-41.12408066	1.0
12	13.64346027	-1.083028078	0.5017899871	-0.9941490293	4.960422516	-44.41905212	1.0
13	13.64346027	-1.083028078	0.5017899871	-0.7514324784	7.206640244	-42.88935471	1.0
14	13.64346027	-1.083028078	0.5017899871	-0.1116964594	10.24770927	-38.85748291	1.0
15	13.64346027	-1.083028078	0.5017899871	0.7925952077	13.74611378	-33.15827942	1.0
[right_wrist2]
11	11.07325459	-0.004849368241	-0.6145500541	-1.417340231e-016	2.524113655	-22.95478058	1.0
12	11.07325459	-0.004849368241	-0.6145500541	-1.461059704e-016	3.362158775	-22.95478058	1.0
13	11.07325459	-0.004849368241	-0.6145500541	0.09751884639	4.951568127	-22.16801453	1.0
14	11.07325459	-0.004849368241	-0.6145500541	0.3545525372	7.19228363	-20.09430885	1.0
15	11.07325459	-0.004849368241	-0.6145500541	0.7178795338	9.818059921	-17.16304779	1.0
[right_hand2]
11	8.785093307	-0.04701882228	-0.1882400364	15.79257298	27.08987427	16.36548233	1.0
12	8.785093307	-0.04701882228	-0.1882400364	15.60893822	26.78532982	17.35798454	1.0
13	8.785093307	-0.04701882228	-0.1882400364	15.64759827	26.28955841	19.11241341	1.0
14	8.785093307	-0.04701882228	-0.1882400364	15.74950027	25.66116333	21.42894173	1.0
15	8.785093307	-0.04701882228	-0.1882400364	15.89354134	24.96143341	24.06206894	1.0
[right_finger6]
11	-10.07661057	-3.347557783	1.489186764	-83.78074646	16.7420826	88.28829956	1.0
12	-10.07661057	-3.347557783	1.489186764	-83.79141998	12.40083218	87.83338165	1.0
13	-10.07661057	-3.347557783	1.489186764	-78.76805115	3.645198822	81.99033356	1.0
14	-10.07661057	-3.347557783	1.489186764	-65.52780151	-9.338441849	67.64733124	1.0
15	-10.07661057	-3.347557783	1.489186764	-46.81218719	-24.88591576	47.66692734	1.0
[right_finger7]
11	1.201135993	-3.376283169	-11.27149582	-193.5391235	12.90291119	109.5945969	1.0
12	1.201135993	-3.376283169	-11.27149582	-192.6822357	13.19705963	112.9573898	1.0
13	1.201135993	-3.376283169	-11.27149582	-190.7597504	13.45817089	120.0015793	1.0
14	1.201135993	-3.376283169	-11.27149582	-187.6849823	13.7091217	130.7493134	1.0
15	1.201135993	-3.376283169	-11.27149582	-183.8923798	13.95217419	143.7685699	1.0
[right_finger8]
11	6.853637218	-4.493112087	5.936321735	33.74206924	-0.4416024983	85.83776093	1.0
12	6.853637218	-4.493112087	5.936321735	33.57893753	1.203124404	83.38881683	1.0
13	6.853637218	-4.493112087	5.936321735	32.76419067	4.150194168	78.49099731	1.0
14	6.853637218	-4.493112087	5.936321735	30.99601555	8.093719482	71.2756958	1.0
15	6.853637218	-4.493112087	5.936321735	28.6020546	12.60518932	62.65914154	1.0
[Center_pelvis]
11	-5.616972446	-0.3766000271	2.04698658	-35.4817543	2.318023443	2.76248455	1.0
12	-5.616972446	-0.3766000271	2.04698658	-37.55899811	3.037044764	4.075335026	1.0
13	-5.616972446	-0.3766000271	2.04698658	-37.1768074	2.479052544	3.15064168	1.0
14	-5.616972446	-0.3766000271	2.04698658	-36.24437332	1.117701411	0.8946372271	1.0
15	-5.616972446	-0.3766000271	2.04698658	-34.97312164	-0.7383177876	-2.181120634	1.0
[left_pelvs]
11	11.08986378	-0.01586683653	-0.09214995801	38.85638428	-5.492798805	4.507294178	1.0
12	11.08986378	-0.01586683653	-0.09214995801	43.62535477	-6.291996956	3.16564703	1.0
13	11.08986378	-0.01586683653	-0.09214995801	40.88446808	-5.533299923	3.865266085	1.0
14	11.08986378	-0.01586683653	-0.09214995801	33.39048386	-3.458909035	5.778128624	1.0
15	11.08986378	-0.01586683653	-0.09214995801	24.77829742	-1.074990869	7.976416588	1.0
[left_leg]
11	8.450808053e-008	-5.682914734	0.3641465604	0	5.791593552	0	1.0
12	8.450808053e-008	-5.682914734	0.3641465604	0	8.927889824	0	1.0
13	8.450808053e-008	-5.682914734	0.3641465604	0	4.96080637	0	1.0
14	8.450808053e-008	-5.682914734	0.3641465604	0	-5.885792255	0	1.0
15	8.450808053e-008	-5.682914734	0.3641465604	0	-18.35084724	0	1.0
[left_knee]
11	-10.69747543	0.03457061574	-6.811455844e-009	15.76340103	-58.62627029	0	1.0
12	-10.69747543	0.03457061574	-6.811455844e-009	17.05337906	-61.02730179	0	1.0
13	-10.69747543	0.03457061574	-6.811455844e-009	14.99706173	-59.46242523	0	1.0
14	-10.69747543	0.03457061574	-6.811455844e-009	9.374778748	-55.18382263	0	1.0
15	-10.69747543	0.03457061574	-6.811455844e-009	2.91357851	-50.2667923	0	1.0
[left_foot]
11	-14.54718971	-0.01193539705	1.933258442e-009	-27.80553055	0	0	1.0
12	-14.54718971	-0.01193539705	1.933258442e-009	-29.2363224	0	0	1.0
13	-14.54718971	-0.01193539705	1.933258442e-009	-29.86027527	0	0	1.0
14	-14.54718971	-0.01193539705	1.933258442e-009	-31.56625366	0	0	1.0
15	-14.54718971	-0.01193539705	1.933258442e-009	-33.52679443	0	0	1.0
[right_pelvis]
11	-10.5868988	0.4465443194	0.2088862956	19.84134865	0.3307206333	-0.9803765416	1.0
12	-10.5868988	0.4465443194	0.2088862956	18.63923645	0.3577847481	-1.060604334	1.0
13	-10.5868988	0.4465443194	0.2088862956	16.32087708	0.3146426082	-0.9327153563	1.0
14	-10.5868988	0.4465443194	0.2088862956	10.17589664	0.1966855377	-0.5830475688	1.0
15	-10.5868988	0.4465443194	0.2088862956	3.157414675	0.06112771109	-0.1812048256	1.0
[right_leg]
11	0.09169664979	-5.593489647	0.06310817599	18.33120155	12.82625675	-12.2707653	1.0
12	0.09169664979	-5.593489647	0.06310817599	18.23251534	11.93289661	-12.59108639	1.0
13	0.09169664979	-5.593489647	0.06310817599	16.37169838	8.247597694	-11.68488407	1.0
14	0.09169664979	-5.593489647	0.06310817599	11.28394699	-1.828559518	-9.207190514	1.0
15	0.09169664979	-5.593489647	0.06310817599	5.437036037	-13.40821266	-6.359791279	1.0
[right_knee]
11	10.69750977	-0.03459574655	-4.718447855e-015	-4.768462305e-017	-19.63104057	-6.54753685	1.0
12	10.69750977	-0.03459574655	-4.718447855e-015	0	-17.07218552	-6.54753685	1.0
13	10.69750977	-0.03459574655	-4.718447855e-015	2.545417221e-017	-17.3847332	-6.54753685	1.0
14	10.69750977	-0.03459574655	-4.718447855e-015	9.504967644e-017	-18.2392807	-6.54753685	1.0
15	10.69750977	-0.03459574655	-4.718447855e-015	1.7502975e-016	-19.22134209	-6.54753685	1.0
[right_foot]
11	14.54718685	0.01191107463	1.774880243e-010	-38.21731186	0	0	1.0
12	14.54718685	0.01191107463	1.774880243e-010	-35.87055969	0	0	1.0
13	14.54718685	0.01191107463	1.774880243e-010	-31.42438126	0	0	1.0
14	14.54718685	0.01191107463	1.774880243e-010	-24.80498695	0	0	1.0
15	14.54718685	0.01191107463	1.774880243e-010	-18.43840218	0	0	1.0
[EndOfFile]
